<svg width="197" height="53" viewBox="0 0 197 53" fill="none" xmlns="http://www.w3.org/2000/svg">
<path d="M39.1594 43.2746L45.421 40.1052" stroke="#FACD7F" stroke-width="2"/>
<path d="M45.4209 40.1052C46.3314 41.8874 46.8832 43.7599 47.0765 45.7225C47.1022 45.9716 47.2032 46.0059 47.3792 45.8256C59.8186 32.8451 54.0402 12.7915 35.8096 9.98926" stroke="#FBE17D" stroke-width="2"/>
<path d="M35.8097 9.98928C31.7985 8.88127 27.7187 8.53556 23.5701 8.95213C22.5136 9.0595 21.5452 8.96931 20.6648 8.68157C15.0281 6.81986 10.274 4.86152 6.14472 1.11878C5.93858 0.929813 5.78827 0.966319 5.69379 1.22829C3.8192 6.42691 4.97874 10.743 7.80029 15.2716C8.0322 15.641 7.95275 15.7312 7.56194 15.5422C5.67661 14.6403 3.91582 13.5323 2.27958 12.2182C2.22986 12.1787 2.17131 12.1518 2.10894 12.1399C2.04657 12.1279 1.98224 12.1313 1.92145 12.1496C1.86066 12.168 1.80522 12.2008 1.75989 12.2453C1.71456 12.2898 1.68068 12.3446 1.66116 12.405C-0.496882 19.0079 2.96242 24.3805 7.20764 29.038C7.42076 29.2721 7.55189 29.5683 7.58127 29.8819C8.73437 42.1151 18.8353 50.831 30.9203 51.2304C31.1522 51.2389 31.2853 51.1294 31.3197 50.9018C31.5301 49.4245 32.2215 48.3616 33.394 47.7131C35.7818 46.3946 37.7036 44.9151 39.1595 43.2746" stroke="#9CA0ED" stroke-width="2"/>
<path d="M35.8098 9.98926L34.792 12.7271" stroke="#9F8972" stroke-width="2"/>
<path d="M34.7919 12.7271C9.64273 5.19648 8.58625 39.7959 32.6532 37.8247C33.2974 37.7667 33.6904 38.0566 33.8256 38.6557" stroke="#9CA0ED" stroke-width="2"/>
<path d="M33.8257 38.6558C34.4613 41.5933 36.2392 43.1329 39.1596 43.2746" stroke="#9E7574" stroke-width="2"/>
<path d="M32.5886 33.3411C32.6015 34.943 32.988 36.4375 33.7482 37.8246C33.9092 38.121 33.8706 38.3464 33.8255 38.6556" stroke="#FACD7F" stroke-width="2"/>
<path d="M45.4209 40.1051C41.807 35.512 37.8581 34.8291 32.5886 33.3411" stroke="#FDB604" stroke-width="2"/>
<path d="M32.5887 33.3411C31.9639 25.6817 32.2731 19.8518 34.7919 12.7271" stroke="#FBE17D" stroke-width="2"/>
<path d="M28.7044 19.7165C28.7044 18.6914 28.2972 17.7082 27.5723 16.9834C26.8475 16.2585 25.8644 15.8513 24.8393 15.8513C23.8142 15.8513 22.8311 16.2585 22.1062 16.9834C21.3813 17.7082 20.9741 18.6914 20.9741 19.7165C20.9741 20.7416 21.3813 21.7247 22.1062 22.4495C22.8311 23.1744 23.8142 23.5816 24.8393 23.5816C25.8644 23.5816 26.8475 23.1744 27.5723 22.4495C28.2972 21.7247 28.7044 20.7416 28.7044 19.7165Z" stroke="#878787" stroke-width="2"/>
<path d="M26.8168 18.3123C26.8168 17.9655 26.6791 17.6329 26.4338 17.3877C26.1886 17.1424 25.8559 17.0046 25.5091 17.0046C25.1623 17.0046 24.8297 17.1424 24.5844 17.3877C24.3392 17.6329 24.2014 17.9655 24.2014 18.3123C24.2014 18.6592 24.3392 18.9918 24.5844 19.237C24.8297 19.4823 25.1623 19.6201 25.5091 19.6201C25.8559 19.6201 26.1886 19.4823 26.4338 19.237C26.6791 18.9918 26.8168 18.6592 26.8168 18.3123Z" stroke="#878787" stroke-width="2"/>
<path d="M35.8097 9.98928L34.7919 12.7271C9.64268 5.1965 8.5862 39.796 32.6532 37.8247C33.2974 37.7668 33.6903 38.0567 33.8256 38.6558C34.4612 41.5933 36.2392 43.1329 39.1595 43.2746C37.7036 44.9151 35.7818 46.3946 33.394 47.7131C32.2215 48.3616 31.5301 49.4245 31.3197 50.9018C31.2853 51.1294 31.1522 51.2389 30.9203 51.2304C18.8353 50.831 8.73437 42.1151 7.58127 29.8819C7.55189 29.5683 7.42076 29.2721 7.20764 29.038C2.96242 24.3805 -0.496882 19.0079 1.66116 12.405C1.68068 12.3446 1.71456 12.2898 1.75989 12.2453C1.80522 12.2008 1.86066 12.168 1.92145 12.1496C1.98224 12.1313 2.04657 12.1279 2.10894 12.1399C2.17131 12.1518 2.22986 12.1787 2.27958 12.2182C3.91582 13.5323 5.67661 14.6403 7.56194 15.5422C7.95275 15.7312 8.0322 15.641 7.80029 15.2716C4.97874 10.743 3.8192 6.42691 5.69379 1.22829C5.78827 0.966319 5.93858 0.929813 6.14472 1.11878C10.274 4.86152 15.0281 6.81986 20.6648 8.68157C21.5452 8.96931 22.5136 9.0595 23.5701 8.95213C27.7187 8.53556 31.7985 8.88127 35.8097 9.98928Z" fill="#4047E2"/>
<path d="M35.8097 9.98926C54.0403 12.7915 59.8187 32.8451 47.3793 45.8256C47.2033 46.0059 47.1023 45.9716 47.0766 45.7225C46.8833 43.7599 46.3315 41.8874 45.421 40.1052C41.8071 35.5121 37.8582 34.8292 32.5887 33.3412C31.9639 25.6817 32.2731 19.8518 34.7919 12.7271L35.8097 9.98926Z" fill="#FECA01"/>
<path d="M34.7919 12.7271C32.2731 19.8518 31.9639 25.6817 32.5888 33.3412C32.6017 34.943 32.9882 36.4376 33.7483 37.8247C33.9094 38.1211 33.8707 38.3465 33.8256 38.6557C33.6904 38.0566 33.2974 37.7667 32.6532 37.8247C8.58625 39.7959 9.64273 5.19648 34.7919 12.7271ZM28.7043 19.7165C28.7043 18.6914 28.2971 17.7083 27.5722 16.9835C26.8474 16.2586 25.8643 15.8514 24.8392 15.8514C23.8141 15.8514 22.831 16.2586 22.1061 16.9835C21.3813 17.7083 20.974 18.6914 20.974 19.7165C20.974 20.7416 21.3813 21.7247 22.1061 22.4496C22.831 23.1745 23.8141 23.5817 24.8392 23.5817C25.8643 23.5817 26.8474 23.1745 27.5722 22.4496C28.2971 21.7247 28.7043 20.7416 28.7043 19.7165Z" fill="#F8F8F8"/>
<path d="M28.7044 19.7165C28.7044 20.7416 28.2972 21.7247 27.5723 22.4495C26.8475 23.1744 25.8644 23.5816 24.8393 23.5816C23.8142 23.5816 22.8311 23.1744 22.1062 22.4495C21.3813 21.7247 20.9741 20.7416 20.9741 19.7165C20.9741 18.6914 21.3813 17.7082 22.1062 16.9834C22.8311 16.2585 23.8142 15.8513 24.8393 15.8513C25.8644 15.8513 26.8475 16.2585 27.5723 16.9834C28.2972 17.7082 28.7044 18.6914 28.7044 19.7165ZM26.8169 18.3121C26.8169 17.9653 26.6792 17.6327 26.4339 17.3874C26.1887 17.1422 25.8561 17.0044 25.5092 17.0044C25.1624 17.0044 24.8298 17.1422 24.5845 17.3874C24.3393 17.6327 24.2015 17.9653 24.2015 18.3121C24.2015 18.659 24.3393 18.9916 24.5845 19.2368C24.8298 19.4821 25.1624 19.6198 25.5092 19.6198C25.8561 19.6198 26.1887 19.4821 26.4339 19.2368C26.6792 18.9916 26.8169 18.659 26.8169 18.3121Z" fill="#151516"/>
<path d="M25.5091 19.6201C26.2313 19.6201 26.8168 19.0346 26.8168 18.3123C26.8168 17.5901 26.2313 17.0046 25.5091 17.0046C24.7869 17.0046 24.2014 17.5901 24.2014 18.3123C24.2014 19.0346 24.7869 19.6201 25.5091 19.6201Z" fill="#F8F8F8"/>
<path d="M32.5886 33.3413C37.8581 34.8294 41.807 35.5122 45.4209 40.1053L39.1594 43.2747C36.239 43.133 34.4611 41.5934 33.8255 38.6559C33.8706 38.3467 33.9092 38.1212 33.7482 37.8249C32.988 36.4377 32.6015 34.9432 32.5886 33.3413Z" fill="#FCA206"/>
<path d="M69.66 38C69.4547 38 69.2867 37.9347 69.156 37.804C69.0253 37.6733 68.96 37.5053 68.96 37.3V19.1C68.96 18.8947 69.0253 18.7267 69.156 18.596C69.2867 18.4653 69.4547 18.4 69.66 18.4H82.736C82.9413 18.4 83.1093 18.4653 83.24 18.596C83.3707 18.7267 83.436 18.8947 83.436 19.1V21.732C83.436 21.9373 83.3707 22.1053 83.24 22.236C83.1093 22.3667 82.9413 22.432 82.736 22.432H73.804V26.212H82.12C82.3253 26.212 82.4933 26.2867 82.624 26.436C82.7547 26.5667 82.82 26.7347 82.82 26.94V29.376C82.82 29.5627 82.7547 29.7307 82.624 29.88C82.4933 30.0107 82.3253 30.076 82.12 30.076H73.804V33.968H82.96C83.1653 33.968 83.3333 34.0333 83.464 34.164C83.5947 34.2947 83.66 34.4627 83.66 34.668V37.3C83.66 37.5053 83.5947 37.6733 83.464 37.804C83.3333 37.9347 83.1653 38 82.96 38H69.66ZM91.8848 38.28C90.9888 38.28 90.1768 38.14 89.4488 37.86C88.7394 37.5613 88.1234 37.132 87.6008 36.572C87.0968 35.9933 86.7048 35.3027 86.4248 34.5C86.1448 33.6787 85.9861 32.7453 85.9488 31.7C85.9301 31.3267 85.9208 31 85.9208 30.72C85.9208 30.4213 85.9301 30.0947 85.9488 29.74C85.9861 28.732 86.1448 27.8267 86.4248 27.024C86.7048 26.2213 87.0968 25.5307 87.6008 24.952C88.1048 24.3733 88.7208 23.9347 89.4488 23.636C90.1768 23.3187 90.9888 23.16 91.8848 23.16C92.8181 23.16 93.6208 23.3187 94.2928 23.636C94.9648 23.9347 95.5341 24.3267 96.0008 24.812V18.82C96.0008 18.6147 96.0661 18.4467 96.1968 18.316C96.3274 18.1853 96.4954 18.12 96.7008 18.12H100.117C100.303 18.12 100.462 18.1853 100.593 18.316C100.742 18.4467 100.817 18.6147 100.817 18.82V37.3C100.817 37.5053 100.742 37.6733 100.593 37.804C100.462 37.9347 100.303 38 100.117 38H96.9528C96.7474 38 96.5794 37.9347 96.4488 37.804C96.3181 37.6733 96.2528 37.5053 96.2528 37.3V36.404C95.8048 36.9453 95.2261 37.3933 94.5168 37.748C93.8074 38.1027 92.9301 38.28 91.8848 38.28ZM93.3968 34.528C94.0314 34.528 94.5261 34.3973 94.8808 34.136C95.2541 33.856 95.5248 33.5013 95.6928 33.072C95.8794 32.6427 95.9821 32.176 96.0008 31.672C96.0194 31.2987 96.0288 30.944 96.0288 30.608C96.0288 30.272 96.0194 29.9267 96.0008 29.572C95.9821 29.1053 95.8794 28.676 95.6928 28.284C95.5061 27.8733 95.2261 27.5467 94.8528 27.304C94.4794 27.0427 93.9941 26.912 93.3968 26.912C92.7808 26.912 92.2861 27.0427 91.9128 27.304C91.5581 27.5653 91.3061 27.92 91.1568 28.368C91.0074 28.816 90.9141 29.3107 90.8768 29.852C90.8208 30.4307 90.8208 31.0093 90.8768 31.588C90.9141 32.1293 91.0074 32.624 91.1568 33.072C91.3061 33.52 91.5581 33.8747 91.9128 34.136C92.2861 34.3973 92.7808 34.528 93.3968 34.528ZM109.465 38.28C108.401 38.28 107.449 38.0373 106.609 37.552C105.788 37.0667 105.144 36.3573 104.677 35.424C104.21 34.472 103.977 33.3147 103.977 31.952V24.14C103.977 23.9347 104.042 23.7667 104.173 23.636C104.304 23.5053 104.472 23.44 104.677 23.44H108.177C108.382 23.44 108.55 23.5053 108.681 23.636C108.812 23.7667 108.877 23.9347 108.877 24.14V31.784C108.877 33.6133 109.698 34.528 111.341 34.528C112.106 34.528 112.713 34.2947 113.161 33.828C113.628 33.3427 113.861 32.6613 113.861 31.784V24.14C113.861 23.9347 113.926 23.7667 114.057 23.636C114.188 23.5053 114.356 23.44 114.561 23.44H118.061C118.266 23.44 118.434 23.5053 118.565 23.636C118.696 23.7667 118.761 23.9347 118.761 24.14V37.3C118.761 37.5053 118.696 37.6733 118.565 37.804C118.434 37.9347 118.266 38 118.061 38H114.813C114.626 38 114.458 37.9347 114.309 37.804C114.178 37.6733 114.113 37.5053 114.113 37.3V36.236C113.628 36.908 112.993 37.4213 112.209 37.776C111.444 38.112 110.529 38.28 109.465 38.28Z" fill="#4047E2"/>
<path d="M123.062 38C122.857 38 122.689 37.9347 122.558 37.804C122.428 37.6733 122.362 37.5053 122.362 37.3V19.1C122.362 18.8947 122.428 18.7267 122.558 18.596C122.689 18.4653 122.857 18.4 123.062 18.4H126.674C126.88 18.4 127.048 18.4653 127.178 18.596C127.309 18.7267 127.374 18.8947 127.374 19.1V25.848H129.082L133.226 18.932C133.32 18.7827 133.45 18.6613 133.618 18.568C133.786 18.456 134.001 18.4 134.262 18.4H138.294C138.481 18.4 138.63 18.4653 138.742 18.596C138.854 18.708 138.91 18.8387 138.91 18.988C138.91 19.1 138.873 19.212 138.798 19.324L133.59 27.836L139.302 37.048C139.358 37.1227 139.386 37.2253 139.386 37.356C139.386 37.5427 139.321 37.7013 139.19 37.832C139.078 37.944 138.929 38 138.742 38H134.598C134.3 38 134.076 37.9347 133.926 37.804C133.796 37.6733 133.693 37.5613 133.618 37.468L129.278 30.328H127.374V37.3C127.374 37.5053 127.309 37.6733 127.178 37.804C127.048 37.9347 126.88 38 126.674 38H123.062ZM148.407 38.28C146.204 38.28 144.45 37.6827 143.143 36.488C141.836 35.2933 141.155 33.52 141.099 31.168C141.099 31.0373 141.099 30.8693 141.099 30.664C141.099 30.4587 141.099 30.3 141.099 30.188C141.155 28.7133 141.482 27.4533 142.079 26.408C142.695 25.344 143.535 24.5413 144.599 24C145.682 23.44 146.942 23.16 148.379 23.16C150.022 23.16 151.375 23.4867 152.439 24.14C153.522 24.7933 154.334 25.68 154.875 26.8C155.416 27.92 155.687 29.1987 155.687 30.636V31.308C155.687 31.5133 155.612 31.6813 155.463 31.812C155.332 31.9427 155.174 32.008 154.987 32.008H146.027C146.027 32.0267 146.027 32.0547 146.027 32.092C146.027 32.1293 146.027 32.1667 146.027 32.204C146.046 32.7453 146.139 33.24 146.307 33.688C146.475 34.136 146.736 34.4907 147.091 34.752C147.446 35.0133 147.875 35.144 148.379 35.144C148.752 35.144 149.06 35.088 149.303 34.976C149.564 34.8453 149.779 34.7053 149.947 34.556C150.115 34.388 150.246 34.248 150.339 34.136C150.507 33.9493 150.638 33.8373 150.731 33.8C150.843 33.744 151.011 33.716 151.235 33.716H154.707C154.894 33.716 155.043 33.772 155.155 33.884C155.286 33.9773 155.342 34.1173 155.323 34.304C155.304 34.6213 155.146 35.004 154.847 35.452C154.548 35.9 154.11 36.348 153.531 36.796C152.971 37.2253 152.262 37.58 151.403 37.86C150.544 38.14 149.546 38.28 148.407 38.28ZM146.027 29.236H150.759V29.18C150.759 28.5827 150.666 28.06 150.479 27.612C150.311 27.164 150.04 26.8187 149.667 26.576C149.312 26.3333 148.883 26.212 148.379 26.212C147.875 26.212 147.446 26.3333 147.091 26.576C146.755 26.8187 146.494 27.164 146.307 27.612C146.12 28.06 146.027 28.5827 146.027 29.18V29.236ZM159.012 38C158.807 38 158.639 37.9347 158.508 37.804C158.377 37.6733 158.312 37.5053 158.312 37.3V24.14C158.312 23.9347 158.377 23.7667 158.508 23.636C158.639 23.5053 158.807 23.44 159.012 23.44H162.148C162.335 23.44 162.493 23.5053 162.624 23.636C162.773 23.7667 162.848 23.9347 162.848 24.14V34.332H166.096V24.14C166.096 23.9347 166.161 23.7667 166.292 23.636C166.423 23.5053 166.591 23.44 166.796 23.44H169.652C169.857 23.44 170.025 23.5053 170.156 23.636C170.287 23.7667 170.352 23.9347 170.352 24.14V34.332H173.6V24.14C173.6 23.9347 173.665 23.7667 173.796 23.636C173.945 23.5053 174.113 23.44 174.3 23.44H177.436C177.641 23.44 177.809 23.5053 177.94 23.636C178.071 23.7667 178.136 23.9347 178.136 24.14V37.3C178.136 37.5053 178.071 37.6733 177.94 37.804C177.809 37.9347 177.641 38 177.436 38H159.012ZM185.922 38.28C184.914 38.28 184.009 38.0933 183.206 37.72C182.422 37.328 181.797 36.8053 181.33 36.152C180.864 35.4987 180.63 34.7613 180.63 33.94C180.63 32.6147 181.172 31.5693 182.254 30.804C183.337 30.02 184.774 29.488 186.566 29.208L190.066 28.676V28.284C190.066 27.612 189.926 27.0987 189.646 26.744C189.366 26.3893 188.853 26.212 188.106 26.212C187.584 26.212 187.154 26.3147 186.818 26.52C186.501 26.7253 186.249 27.0053 186.062 27.36C185.894 27.6027 185.661 27.724 185.362 27.724H182.226C182.021 27.724 181.862 27.668 181.75 27.556C181.638 27.4253 181.592 27.276 181.61 27.108C181.61 26.772 181.732 26.3893 181.974 25.96C182.236 25.512 182.628 25.0733 183.15 24.644C183.673 24.2147 184.345 23.86 185.166 23.58C185.988 23.3 186.977 23.16 188.134 23.16C189.348 23.16 190.384 23.3 191.242 23.58C192.101 23.86 192.792 24.252 193.314 24.756C193.856 25.26 194.257 25.8573 194.518 26.548C194.78 27.22 194.91 27.9667 194.91 28.788V37.3C194.91 37.5053 194.836 37.6733 194.686 37.804C194.556 37.9347 194.397 38 194.21 38H190.962C190.757 38 190.589 37.9347 190.458 37.804C190.328 37.6733 190.262 37.5053 190.262 37.3V36.32C190.02 36.6747 189.693 37.0013 189.282 37.3C188.872 37.5987 188.386 37.832 187.826 38C187.285 38.1867 186.65 38.28 185.922 38.28ZM187.238 35.088C187.78 35.088 188.265 34.976 188.694 34.752C189.142 34.5093 189.488 34.1453 189.73 33.66C189.992 33.156 190.122 32.5307 190.122 31.784V31.392L187.742 31.812C186.865 31.9613 186.221 32.1947 185.81 32.512C185.418 32.8107 185.222 33.1653 185.222 33.576C185.222 33.8933 185.316 34.164 185.502 34.388C185.689 34.612 185.932 34.7893 186.23 34.92C186.529 35.032 186.865 35.088 187.238 35.088Z" fill="#FCA206"/>
</svg>
