<svg width="47" height="43" viewBox="0 0 47 43" fill="none" xmlns="http://www.w3.org/2000/svg">
<path fill-rule="evenodd" clip-rule="evenodd" d="M5.5 5.5V26.7222H41.1111V5.5H5.5ZM0 3.74652C0 1.67546 1.67545 0 3.74652 0H42.8646C44.9357 0 46.6111 1.67545 46.6111 3.74652V28.4757C46.6111 30.5468 44.9357 32.2222 42.8646 32.2222H26.0555V33.6568L36.5085 37.1411C37.9493 37.6214 38.728 39.1788 38.2477 40.6196C37.7674 42.0605 36.2101 42.8392 34.7692 42.3589L23.3055 38.5376L11.8418 42.3589C10.4009 42.8392 8.84357 42.0605 8.36329 40.6196C7.88301 39.1788 8.6617 37.6214 10.1025 37.1411L20.5555 33.6568V32.2222H3.74652C1.67545 32.2222 0 30.5468 0 28.4757V3.74652Z" fill="black"/>
</svg>
