<svg width="19" height="13" viewBox="0 0 19 13" fill="none" xmlns="http://www.w3.org/2000/svg">
<path d="M1.05282 12.0816H17.8979C18.4769 12.0816 18.9507 11.6286 18.9507 11.0748C18.9507 10.5211 18.4769 10.068 17.8979 10.068H1.05282C0.473768 10.068 0 10.5211 0 11.0748C0 11.6286 0.473768 12.0816 1.05282 12.0816ZM1.05282 7.04762H17.8979C18.4769 7.04762 18.9507 6.59456 18.9507 6.04082C18.9507 5.48707 18.4769 5.03401 17.8979 5.03401H1.05282C0.473768 5.03401 0 5.48707 0 6.04082C0 6.59456 0.473768 7.04762 1.05282 7.04762ZM0 1.0068C0 1.56054 0.473768 2.01361 1.05282 2.01361H17.8979C18.4769 2.01361 18.9507 1.56054 18.9507 1.0068C18.9507 0.453061 18.4769 0 17.8979 0H1.05282C0.473768 0 0 0.453061 0 1.0068Z" fill="#4047E2"/>
</svg>
